# xmcd CD database file
#
# Track frame offsets:
#	150
#	11659
#	33063
#	46797
#	65686
#	79330
#	102580
#	117749
#	133420
#	143532
#
# Disc length: 2199 seconds
#
# Revision: 0
# Processed by: cddbd v1.5.1PL2 Copyright (c) Steve Scherf et al.
# Submitted via: CDex 1.60beta1-cs1
#
DISCID=8c08950a
DTITLE=霧生トシ子（P）・大田寛二（Dr）・西沢秀樹（B） - Jazz Arrange Music World Vol_1
DYEAR=1900
DGENRE=Jazz
TTITLE0=ローレライ
TTITLE1=もみの木
TTITLE2=故郷を離るる歌
TTITLE3=ウェルナーの野ばら
TTITLE4=真実の愛
TTITLE5=聖夜
TTITLE6=わかれ
TTITLE7=溢るる涙
TTITLE8=モルゲンローテ
TTITLE9=白バラ匂う夕べは
EXTD=
EXTT0=
EXTT1=
EXTT2=
EXTT3=
EXTT4=
EXTT5=
EXTT6=
EXTT7=
EXTT8=
EXTT9=
PLAYORDER=
